<?xml version="1.0" encoding="utf-8"?>
<svg viewBox="0 0 500 500" xmlns="http://www.w3.org/2000/svg">
  <path d="M251 200l8-29c21 7 37 13 48 20-2-25-3-43-3-51h29c3 13-1 30-3 51 13-6 29-13 48-20l8 29c-17 5-34 8-51 11 7 6 19 20 35 39l-24 17c-7-10-17-25-28-45-9 18-18 34-25 45l-23-16c16-18 27-32 34-39-17-2-34-6-50-11" fill="#333"/>
  <rect x="132" y="298" width="70" height="70" rx="35" ry="35" fill="#333"/>
  <path d="M93 125s-47 55-47 138 47 138 47 138m313-276s48 55 48 139-47 138-47 138" fill="none" stroke="#333" stroke-linecap="round" stroke-width="40"/>
</svg>
