<?xml version="1.0" encoding="utf-8"?>
<svg viewBox="0 0 500 500" xmlns="http://www.w3.org/2000/svg">
  <rect x="60" y="60" width="380" height="380" rx="55" ry="55" fill="none" stroke="#333" stroke-width="20"/>
  <path d="M138.982 138.083S104.924 183.186 104.924 250s34.058 111.917 34.058 111.917" fill="none" stroke="#333" stroke-width="25" stroke-linecap="round"/>
  <path d="M260 200.06l5.567-17.186c12.83 4.519 22.149 8.432 27.958 11.74-1.533-14.604-2.34-24.65-2.42-30.136h17.549c-.243 7.988-1.17 17.993-2.784 30.015 8.31-4.195 17.831-8.068 28.563-11.619L340 200.06c-10.247 3.39-20.293 5.649-30.136 6.778 4.922 4.277 11.86 11.901 20.817 22.875L316.157 240c-4.68-6.374-10.206-15.048-16.58-26.021-5.971 11.377-11.216 20.05-15.734 26.021l-14.282-10.287c9.36-11.538 16.057-19.163 20.091-22.875-10.408-2.017-20.292-4.276-29.652-6.778" fill="#333"/>
  <rect x="180" y="310" width="40" height="40" rx="20" ry="20" fill="#333"/>
  <path d="M363.034 138.07s34.043 45.108 34.043 111.93-34.043 111.93-34.043 111.93" fill="none" stroke="#333" stroke-width="25" stroke-linecap="round"/>
</svg>
